<?xml version="1.0" standalone="no"?>
<!DOCTYPE svg PUBLIC "-//W3C//DTD SVG 20010904//EN"
 "http://www.w3.org/TR/2001/REC-SVG-20010904/DTD/svg10.dtd">
<svg version="1.0" xmlns="http://www.w3.org/2000/svg"
 width="60.000000pt" height="52.000000pt" viewBox="0 0 60.000000 52.000000"
 preserveAspectRatio="xMidYMid meet">

<g transform="translate(0.000000,52.000000) scale(0.100000,-0.100000)"
fill="#000000" stroke="none">
<path d="M124 505 c-4 -9 -4 -28 -1 -43 8 -42 -58 -160 -92 -164 -22 -3 -26
-8 -26 -38 0 -30 4 -35 25 -38 36 -4 94 -109 95 -172 0 -43 1 -45 33 -48 22
-2 34 2 38 12 9 23 199 23 208 0 4 -10 16 -14 38 -12 32 3 33 5 33 48 1 63 59
168 95 172 21 3 25 8 25 38 0 30 -4 35 -25 38 -36 4 -94 109 -95 172 0 43 -1
45 -33 48 -22 2 -34 -2 -38 -12 -9 -23 -199 -23 -208 -1 -7 20 -65 20 -72 0z
m56 -25 c0 -13 -7 -20 -20 -20 -13 0 -20 7 -20 20 0 13 7 20 20 20 13 0 20 -7
20 -20z m280 0 c0 -13 -7 -20 -20 -20 -13 0 -20 7 -20 20 0 13 7 20 20 20 13
0 20 -7 20 -20z m-56 -25 c3 -8 16 -15 28 -15 35 0 91 -106 93 -174 1 -69 -57
-186 -92 -186 -13 0 -26 -7 -29 -15 -9 -22 -199 -22 -208 0 -3 8 -16 15 -28
15 -35 0 -91 106 -93 174 -1 69 57 186 92 186 13 0 26 7 29 15 5 12 26 15 104
15 78 0 99 -3 104 -15z m-344 -195 c0 -13 -7 -20 -20 -20 -13 0 -20 7 -20 20
0 13 7 20 20 20 13 0 20 -7 20 -20z m520 0 c0 -13 -7 -20 -20 -20 -13 0 -20 7
-20 20 0 13 7 20 20 20 13 0 20 -7 20 -20z m-400 -220 c0 -13 -7 -20 -20 -20
-13 0 -20 7 -20 20 0 13 7 20 20 20 13 0 20 -7 20 -20z m280 0 c0 -13 -7 -20
-20 -20 -13 0 -20 7 -20 20 0 13 7 20 20 20 13 0 20 -7 20 -20z"/>
</g>
</svg>
